# xmcd CD database file
#
# Track frame offsets:
#	150
#	19487
#	38949
#	56409
#	76702
#	94348
#	113896
#	132594
#	152851
#	172023
#	189538
#	207395
#	222686
#	240816
#	257492
#	275442
#
# Disc length: 3901 seconds
#
# Revision: 0
# Processed by: cddbd v1.5.2PL0 Copyright (c) Steve Scherf et al.
# Submitted via: CDex 1.70beta2
#
DISCID=e70f3b10
DTITLE=gianni morandi - grazie a tutti cd3
DYEAR=2007
DGENRE=Rhythmic Soul
TTITLE0=fino alla fine del mondo
TTITLE1=giovane amante mia
TTITLE2=in amore
TTITLE3=io sono un treno
TTITLE4=dove va a finire il mio affetto
TTITLE5=canzone libera
TTITLE6=innamorato
TTITLE7=la storia mia con te
TTITLE8=l'amore ci cambia la vita
TTITLE9=dimmi adesso con chi sei
TTITLE10=il mio amico
TTITLE11=corre piu di noi
TTITLE12=solo chi si ama veramente
TTITLE13=il tempo migliore
TTITLE14=stringimi le mani
TTITLE15=un mondo d'amore
EXTD=YEAR: 2007
EXTT0=
EXTT1=
EXTT2=
EXTT3=
EXTT4=
EXTT5=
EXTT6=
EXTT7=
EXTT8=
EXTT9=
EXTT10=
EXTT11=
EXTT12=
EXTT13=
EXTT14=
EXTT15=
PLAYORDER=
